<?xml version="1.0" standalone="no"?>
<!DOCTYPE svg PUBLIC "-//W3C//DTD SVG 20010904//EN"
 "http://www.w3.org/TR/2001/REC-SVG-20010904/DTD/svg10.dtd">
<svg version="1.0" xmlns="http://www.w3.org/2000/svg"
 width="320.000000pt" height="320.000000pt" viewBox="0 0 320.000000 320.000000"
 preserveAspectRatio="xMidYMid meet">
<metadata>
Created by potrace 1.11, written by Peter Selinger 2001-2013
</metadata>
<g transform="translate(0.000000,320.000000) scale(0.100000,-0.100000)"
fill="#000000" stroke="none">
<path d="M662 1593 l3 -1188 260 0 260 0 3 300 2 300 175 218 c96 120 184 230
195 245 l22 27 26 -30 c15 -17 41 -49 58 -70 18 -22 92 -114 165 -205 73 -91
137 -171 143 -179 7 -9 12 -113 13 -305 0 -160 2 -294 2 -297 1 -3 119 -6 264
-5 l262 1 0 1183 c1 650 -2 1181 -5 1180 -13 -6 -111 -119 -230 -268 -69 -85
-130 -162 -137 -170 -6 -8 -42 -53 -79 -100 -38 -47 -70 -87 -74 -90 -3 -3
-94 -116 -203 -252 -109 -137 -200 -248 -202 -248 -2 0 -30 33 -62 73 -32 39
-60 74 -63 77 -3 3 -88 109 -190 235 -391 488 -555 691 -582 723 l-28 33 2
-1188z m267 718 c94 -117 171 -219 172 -225 0 -6 1 -244 1 -528 1 -554 4 -525
-48 -584 -11 -12 -82 -101 -159 -197 -77 -96 -141 -174 -142 -173 -3 2 -5
1489 -4 1815 1 63 3 112 5 110 2 -2 81 -100 175 -218z m1499 -1236 l-3 -486
-129 162 c-72 89 -135 166 -141 173 -6 6 -27 32 -46 58 l-36 46 1 537 1 536
175 216 175 216 3 -487 c1 -267 1 -704 0 -971z m-442 490 l0 -426 -32 38
c-136 160 -312 389 -305 398 25 33 333 415 335 415 1 0 2 -191 2 -425z m-691
290 c44 -55 85 -105 90 -111 6 -6 24 -28 40 -49 17 -21 47 -59 67 -84 l37 -44
-32 -41 c-17 -23 -34 -43 -37 -46 -3 -3 -61 -75 -129 -160 -68 -85 -128 -159
-133 -165 -4 -5 -8 180 -8 410 1 332 3 417 13 405 7 -9 48 -61 92 -115z m-192
-1165 c0 -105 -2 -193 -5 -195 -3 -3 -76 -4 -162 -3 l-156 3 96 120 c53 66
124 155 157 197 34 42 63 75 66 73 2 -3 4 -91 4 -195z m1027 128 c28 -35 57
-70 63 -78 7 -8 50 -62 96 -120 46 -58 89 -111 94 -117 7 -10 -24 -13 -150
-13 l-160 0 0 195 c0 107 1 195 3 195 1 0 25 -28 54 -62z"/>
</g>
</svg>
