<?xml version="1.0" encoding="utf-8"?>
<!-- Generator: Adobe Illustrator 22.0.1, SVG Export Plug-In . SVG Version: 6.00 Build 0)  -->
<svg version="1.1" id="Layer_1" xmlns="http://www.w3.org/2000/svg" xmlns:xlink="http://www.w3.org/1999/xlink" x="0px" y="0px"
	 viewBox="0 0 38 42" style="enable-background:new 0 0 38 42;" xml:space="preserve">
<style type="text/css">
	.st0{fill:#03A9AF;}
	.st1{fill:#FFFFFF;}
</style>
<g>
	<polygon class="st0" points="19,0 0,10.5 0,31.5 19,42 38,31.5 38,10.5 	"/>
	<path class="st1" d="M19,20.2L8.5,9.7v21.7h5.2V27l5.3-5.3l5.3,5.3v4.5h5.2V9.7L19,20.2z M28.5,12.2v17.6l-3.2-3.2V15.4L28.5,12.2z
		 M12.7,15.4v11.2l-3.2,3.2V12.2L12.7,15.4z M12.7,30.4h-2.5l2.5-2.5V30.4z M13.7,25.5v-9.2l4.6,4.6L13.7,25.5z M19.7,20.9l4.6-4.6
		v9.2L19.7,20.9z M25.3,28l2.5,2.5h-2.5V28z"/>
</g>
</svg>
