<svg xmlns="http://www.w3.org/2000/svg" width="49" height="42" viewBox="0 0 49 42">
  <g fill="#00B0AC">
    <path d="M46.6927,19.0577815 C45.3983527,19.0577815 44.3852875,20.077909 44.3852875,21.3812794 L44.3852875,37.3556102 L4.61482505,37.3556102 L4.61482505,21.3234978 C4.61482505,20.0201275 3.60175979,19 2.30741253,19 C1.01306526,19 0,20.0201275 0,21.3234978 L0,39.6765022 C0,40.9798725 1.01306526,42 2.30741253,42 L46.6925875,42 C47.9869347,42 49,40.9798725 49,39.6765022 L49,21.3234978 C49,20.0776824 47.9869347,19.0575549 46.6925875,19.0575549 L46.6927,19.0577815 Z"/>
    <path d="M26.6452126,0.684103182 C26.5865754,0.626167591 26.53019,0.570456782 26.4151674,0.512521191 C26.3565302,0.512521191 26.3565302,0.4545856 26.2415076,0.398874791 C25.894188,0.1136464 25.4341206,0 24.9717669,0 C24.6830844,0 24.3357418,0.0579355907 24.0470594,0.171581991 C23.7583769,0.285228391 23.4696945,0.456810382 23.2396724,0.628392372 L11.6923759,12.1510489 C11.2300337,12.6078593 11,13.2340041 11,13.8624192 C11,14.4908344 11.2886824,15.0033328 11.6923759,15.4021962 C12.1547181,15.8590066 12.6734342,16.086288 13.3658101,16.086288 C14.058186,16.086288 14.6355508,15.8589952 15.0392443,15.4021962 L22.544987,7.92807144 L22.544987,31.6602145 C22.544987,32.9727214 23.5847056,34 24.9131066,34 C26.2415076,34 27.2812262,32.9727214 27.2812262,31.6602145 L27.2812262,7.92807144 L34.9607557,15.4021962 C35.4230979,15.8590066 35.941814,16.086288 36.6341899,16.086288 C37.3265658,16.086288 37.9039306,15.8589952 38.3076241,15.4021962 C38.7699663,14.9453858 39,14.319241 39,13.6908258 C39,13.0624107 38.7113176,12.5499123 38.3076241,12.1510489 L26.6452126,0.684103182 Z"/>
  </g>
</svg>
