<?xml version="1.0" encoding="utf-8"?>
<!-- Generator: Adobe Illustrator 22.0.1, SVG Export Plug-In . SVG Version: 6.00 Build 0)  -->
<svg version="1.1" id="Layer_1" xmlns="http://www.w3.org/2000/svg" xmlns:xlink="http://www.w3.org/1999/xlink" x="0px" y="0px"
	 viewBox="0 0 39 43.1" style="enable-background:new 0 0 39 43.1;" xml:space="preserve">
<style type="text/css">
	.st0{fill:#FFFFFF;}
</style>
<g>
	<path class="st0" d="M19.5,0L0,10.8v21.6l19.5,10.8L39,32.4V10.8L19.5,0z M38,31.8L19.5,42L1,31.8V11.4L19.5,1.1L38,11.4V31.8z"/>
	<path class="st0" d="M9,10.3V32h5.2v-4.5l5.3-5.3l5.3,5.3V32H30V10.3L19.5,20.8L9,10.3z M13.2,31h-2.5l2.5-2.5V31z M13.2,27.1
		L10,30.3V12.7l3.2,3.2V27.1z M14.2,26.1v-9.2l4.6,4.6L14.2,26.1z M25.8,15.9l3.2-3.2v17.6l-3.2-3.2V15.9z M25.8,28.5l2.5,2.5h-2.5
		V28.5z M24.8,16.9v9.2l-4.6-4.6L24.8,16.9z"/>
</g>
</svg>
