<?xml version="1.0" encoding="utf-8"?>
<!-- Generator: Adobe Illustrator 22.0.1, SVG Export Plug-In . SVG Version: 6.00 Build 0)  -->
<svg version="1.1" id="Layer_1" xmlns="http://www.w3.org/2000/svg" xmlns:xlink="http://www.w3.org/1999/xlink" x="0px" y="0px"
	 viewBox="0 0 173.4 46" style="enable-background:new 0 0 173.4 46;" xml:space="preserve">
<style type="text/css">
	.st0{fill:#FFFFFF;}
</style>
<g>
	<g>
		<g>
			<path d="M48.9,32.8c-0.1-0.1-0.1-0.1-0.1-0.3L51,14.3c0-0.1,0.1-0.2,0.1-0.3c0.1-0.1,0.2-0.1,0.2-0.1h1.2c0.2,0,0.3,0.1,0.4,0.2
				l3.8,7.8c0.1,0.1,0.1,0.1,0.2,0l5.8-7.8c0.1-0.2,0.3-0.2,0.4-0.2h1.2c0.2,0,0.3,0.1,0.3,0.4l-2.2,18.2c0,0.1-0.1,0.2-0.1,0.3
				c-0.1,0.1-0.2,0.1-0.3,0.1H61c-0.2,0-0.3-0.1-0.3-0.4l1.8-14.9c0-0.1,0-0.1-0.1-0.1c0,0-0.1,0-0.1,0.1l-5,6.8
				c-0.1,0.2-0.3,0.2-0.4,0.2h-0.6c-0.1,0-0.3-0.1-0.4-0.2l-3.3-6.8c0-0.1,0-0.1-0.1-0.1s-0.1,0-0.1,0.1l-1.8,14.9
				c0,0.2-0.2,0.4-0.4,0.4h-1.2C49,32.9,48.9,32.8,48.9,32.8z"/>
			<path d="M79,32.6l-0.6-3.3c0,0,0,0,0-0.1c0,0,0,0-0.1,0h-7.8c0,0-0.1,0-0.2,0.1l-1.4,3.3c-0.1,0.2-0.2,0.3-0.4,0.3h-1.3
				c-0.1,0-0.2,0-0.3-0.1c0-0.1,0-0.2,0-0.3l8-18.2c0.1-0.2,0.2-0.3,0.4-0.3H77c0.2,0,0.3,0.1,0.4,0.3l3.5,18.2v0.1
				c0,0.2-0.1,0.3-0.3,0.3h-1.3C79.1,32.9,79,32.8,79,32.6z M71.1,27.6h6.8c0,0,0.1,0,0.1,0c0,0,0-0.1,0-0.1l-2.1-11
				c0-0.1,0-0.1-0.1-0.1s-0.1,0-0.1,0.1l-4.7,11C71,27.5,71.1,27.6,71.1,27.6z"/>
			<path d="M88.2,32.6l-3.4-18.2v-0.1c0-0.2,0.1-0.3,0.3-0.3h1.3c0.2,0,0.3,0.1,0.3,0.3L89.6,30c0,0.1,0,0.1,0.1,0.1
				c0,0,0.1,0,0.1-0.1l6.7-15.7c0.1-0.2,0.2-0.3,0.4-0.3H98c0.1,0,0.2,0,0.3,0.1c0,0.1,0,0.2,0,0.3l-8,18.2
				c-0.1,0.2-0.2,0.3-0.4,0.3h-1.3C88.4,32.9,88.3,32.8,88.2,32.6z"/>
			<path d="M114,15.6h-9.5c-0.1,0-0.1,0-0.2,0.1l-0.8,6.6c0,0.1,0,0.1,0.1,0.1h6.6c0.2,0,0.3,0.1,0.3,0.4l-0.1,1
				c0,0.1-0.1,0.2-0.1,0.3c-0.1,0.1-0.2,0.1-0.3,0.1h-6.6c-0.1,0-0.1,0-0.2,0.1l-0.8,6.7c0,0.1,0,0.1,0.1,0.1h9.5
				c0.2,0,0.3,0.1,0.3,0.4l-0.1,1c0,0.1-0.1,0.2-0.1,0.3c-0.1,0.1-0.2,0.1-0.2,0.1h-11.2c-0.1,0-0.2,0-0.2-0.1
				c-0.1-0.1-0.1-0.1-0.1-0.3l2.2-18.2c0-0.1,0.1-0.2,0.1-0.3c0.1-0.1,0.2-0.1,0.2-0.1h11.2c0.1,0,0.2,0,0.2,0.1
				c0.1,0.1,0.1,0.1,0.1,0.3l-0.1,1C114.4,15.5,114.3,15.6,114,15.6z"/>
			<path d="M127.4,32.8c-0.1-0.1-0.1-0.1-0.1-0.2l-2.8-8.3c0,0,0-0.1,0-0.1c0,0-0.1,0-0.1,0H120c-0.1,0-0.1,0-0.1,0.1l-1,8.2
				c0,0.2-0.2,0.4-0.4,0.4h-1.2c-0.1,0-0.2,0-0.2-0.1c-0.1-0.1-0.1-0.1-0.1-0.3l2.2-18.2c0-0.1,0.1-0.2,0.1-0.3
				c0.1-0.1,0.2-0.1,0.2-0.1h6.7c1.3,0,2.4,0.4,3.2,1.2c0.8,0.8,1.2,1.8,1.2,3.1c0,0.2,0,0.5-0.1,0.9c-0.1,1.3-0.6,2.3-1.4,3.2
				c-0.8,0.9-1.7,1.4-2.9,1.7c-0.1,0-0.1,0.1-0.1,0.2l2.9,8.3l0,0.1c0,0.2-0.2,0.3-0.4,0.3h-1.2C127.6,32.9,127.5,32.8,127.4,32.8z
				 M120.9,15.7l-0.8,6.8c0,0.1,0,0.1,0.1,0.1h4.8c1.1,0,2-0.4,2.8-1.1c0.7-0.8,1.1-1.7,1.1-2.9c0-0.9-0.3-1.6-0.8-2.2
				c-0.5-0.5-1.3-0.8-2.2-0.8H121C121,15.6,120.9,15.7,120.9,15.7z"/>
			<path d="M134.2,32.8c-0.1-0.1-0.1-0.1-0.1-0.3l2.2-18.2c0-0.1,0.1-0.2,0.1-0.3c0.1-0.1,0.2-0.1,0.2-0.1h1.2
				c0.2,0,0.3,0.1,0.3,0.4L136,32.5c0,0.2-0.2,0.4-0.4,0.4h-1.2C134.3,32.9,134.2,32.8,134.2,32.8z"/>
			<path d="M143.5,31.7c-1-0.9-1.5-2.2-1.5-3.7c0-0.4,0-0.7,0.1-0.9l0.9-7.4c0.1-1.2,0.5-2.2,1.2-3.1c0.6-0.9,1.4-1.6,2.4-2.1
				c1-0.5,2.1-0.7,3.3-0.7c1.7,0,3,0.5,4,1.4c1,0.9,1.5,2.1,1.5,3.6c0,0.2,0,0.5-0.1,0.9c0,0.2-0.2,0.3-0.4,0.3l-1.2,0.1h-0.1
				c-0.1,0-0.1,0-0.2-0.1c-0.1,0-0.1-0.1-0.1-0.1l0-0.2c0-0.1,0-0.4,0-0.6c0-1.1-0.3-2-1-2.6c-0.7-0.6-1.6-1-2.8-1
				c-1.3,0-2.4,0.4-3.3,1.2c-0.9,0.8-1.4,1.8-1.6,3.1l-0.9,7.6c0,0.1,0,0.4,0,0.6c0,1.1,0.3,2,1,2.6c0.7,0.6,1.6,1,2.8,1
				c1.3,0,2.4-0.4,3.3-1.2c0.9-0.8,1.4-1.8,1.5-3.1c0-0.1,0.1-0.2,0.1-0.2c0.1-0.1,0.1-0.1,0.3-0.1l1.2,0.1c0.2,0,0.3,0,0.3,0.1
				l0,0.1c-0.1,1.2-0.5,2.2-1.1,3.1c-0.6,0.9-1.4,1.6-2.4,2.1c-1,0.5-2.1,0.7-3.3,0.7C145.9,33.1,144.5,32.7,143.5,31.7z"/>
			<path d="M159,32.8c-0.1-0.1-0.1-0.1-0.1-0.3l2.2-18.2c0-0.1,0.1-0.2,0.1-0.3c0.1-0.1,0.2-0.1,0.2-0.1h1.2c0.2,0,0.3,0.1,0.3,0.4
				l-1.1,9c0,0.1,0,0.1,0,0.1c0,0,0.1,0,0.1-0.1l9.3-9.2c0.1-0.1,0.3-0.2,0.5-0.2h1.3c0.2,0,0.3,0.1,0.3,0.2c0,0.1,0,0.2-0.1,0.2
				l-7.2,7.4c-0.1,0.1-0.1,0.1-0.1,0.2l5.6,10.5c0,0.1,0.1,0.1,0.1,0.2c0,0.1,0,0.1-0.1,0.2c-0.1,0-0.1,0.1-0.2,0.1H170
				c-0.2,0-0.3-0.1-0.4-0.2l-5-9.3c-0.1-0.1-0.1-0.1-0.2,0l-2.8,2.7c-0.1,0.1-0.1,0.2-0.1,0.2l-0.8,6.3c0,0.2-0.2,0.4-0.4,0.4h-1.2
				C159.1,32.9,159,32.8,159,32.8z"/>
		</g>
	</g>
	<g>
		<polygon points="20.8,0 0,11.5 0,34.5 20.8,46 41.6,34.5 41.6,11.5 		"/>
		<path class="st0" d="M20.8,22.2L9.4,10.8v23.6H15v-4.9l5.9-5.9l5.9,5.9v4.9h5.6V10.8L20.8,22.2z M31.3,13.2v19.5l-3.6-3.6V16.8
			L31.3,13.2z M14,16.8v12.3l-3.6,3.6V13.2L14,16.8z M14,33.4h-2.9l2.9-2.9V33.4z M15,28.1V17.8l5.1,5.1L15,28.1z M21.5,22.9
			l5.1-5.1v10.3L21.5,22.9z M27.7,30.5l2.9,2.9h-2.9V30.5z"/>
	</g>
</g>
</svg>
