<?xml version="1.0" encoding="utf-8"?>
<!-- Generator: Adobe Illustrator 22.0.1, SVG Export Plug-In . SVG Version: 6.00 Build 0)  -->
<svg version="1.1" id="Layer_1" xmlns="http://www.w3.org/2000/svg" xmlns:xlink="http://www.w3.org/1999/xlink" x="0px" y="0px"
	 viewBox="0 0 41.6 46" style="enable-background:new 0 0 41.6 46;" xml:space="preserve">
<g>
	<polygon points="15,28.1 20.1,22.9 15,17.8 	"/>
	<polygon points="31.3,13.2 27.7,16.8 27.7,29.1 31.3,32.7 	"/>
	<polygon points="10.4,32.7 14,29.1 14,16.8 10.4,13.2 	"/>
	<polygon points="14,33.4 14,30.5 11.1,33.4 	"/>
	<polygon points="26.7,17.8 21.5,22.9 26.7,28.1 	"/>
	<polygon points="27.7,30.5 27.7,33.4 30.6,33.4 	"/>
	<path d="M20.8,0L0,11.5v23L20.8,46l20.8-11.5v-23L20.8,0z M32.3,34.4h-5.6v-4.9l-5.9-5.9L15,29.5v4.9H9.4V10.8l11.5,11.5l11.5-11.5
		v23.6H32.3z"/>
</g>
</svg>
